[IMG]http://www.shotpix.com/images/50279931459679468938.jpg[/IMG]

General
Complete name                            : Florida Georgia Line - Cruise [Music Video] 1080p [Sbyky].mp4
Format                                   : MPEG-4
Format profile                           : Base Media / Version 2
Codec ID                                 : mp42
File size                                : 134 MiB
Duration                                 : 3mn 35s
Overall bit rate mode                    : Variable
Overall bit rate                         : 5 198 Kbps
Encoded date                             : UTC 2012-08-27 01:05:04
Tagged date                              : UTC 2012-08-27 01:05:04
gsst                                     : 0
gstd                                     : 216106
gssd                                     : BADC21FA2HH1357549791611552
gshh                                     :

Video
ID                                       : 1
Format                                   : AVC
Format/Info                              : Advanced Video Codec
Format profile                           : High@L4.0
Format settings, CABAC                   : Yes
Format settings, ReFrames                : 1 frame
Codec ID                                 : avc1
Codec ID/Info                            : Advanced Video Coding
Duration                                 : 3mn 35s
Bit rate                                 : 5 003 Kbps
Maximum bit rate                         : 9 118 Kbps
Width                                    : 1 920 pixels
Height                                   : 1 080 pixels
Display aspect ratio                     : 16:9
Frame rate mode                          : Constant
Frame rate                               : 23.976 fps
Color space                              : YUV
Chroma subsampling                       : 4:2:0
Bit depth                                : 8 bits
Scan type                                : Progressive
Bits/(Pixel*Frame)                       : 0.101
Stream size                              : 129 MiB (96%)
Tagged date                              : UTC 2012-08-27 01:05:04

Audio
ID                                       : 2
Format                                   : AAC
Format/Info                              : Advanced Audio Codec
Format profile                           : LC
Codec ID                                 : 40
Duration                                 : 3mn 35s
Bit rate mode                            : Variable
Bit rate                                 : 192 Kbps
Maximum bit rate                         : 201 Kbps
Channel(s)                               : 2 channels
Channel positions                        : Front: L R
Sampling rate                            : 44.1 KHz
Compression mode                         : Lossy
Stream size                              : 4.94 MiB (4%)
Title                                    : IsoMedia File Produced by Google, 5-11-2011
Encoded date                             : UTC 2012-08-27 01:05:04
Tagged date                              : UTC 2012-08-27 01:05:04

Shared By Sbyky
[IMG]http://www.shotpix.com/images/65449402944248708647.gif[/IMG]